<svg width="1004" height="1003" viewBox="0 0 1004 1003" fill="none" xmlns="http://www.w3.org/2000/svg">
<circle cx="502" cy="522" r="481" fill="white"/>
<path d="M501.988 0.558594C571.723 0.558594 637.91 13.5586 698.191 39.5586C758.473 65.5586 811.645 101.027 857.754 145.934C902.66 192.027 938.113 245.215 964.113 305.496C990.129 365.777 1003.13 431.965 1003.13 501.699C1003.13 615.152 970.035 715.621 903.848 801.902C836.473 889.371 751.379 949.637 648.551 981.559L731.285 670.715C766.738 667.168 798.645 652.98 828.191 625.793C857.754 598.605 877.832 564.34 889.66 520.605C902.66 469.777 899.113 421.324 877.832 375.23C856.566 329.137 824.66 300.762 782.098 290.137C771.473 286.59 759.645 285.402 745.457 285.402C706.457 285.402 671.004 299.59 639.098 326.777C606.004 355.137 583.535 391.777 570.535 435.512C559.91 476.871 559.91 515.871 571.723 552.512C582.363 590.34 601.27 619.887 628.457 641.168L530.348 1001.65C524.441 1002.82 514.988 1002.82 501.988 1002.82C494.895 1002.82 487.801 1002.82 481.895 1001.65C475.988 1001.65 468.895 1001.65 461.801 1000.46L363.707 641.168L449.988 621.074L375.52 288.949L319.973 304.309L383.801 580.887L354.254 589.152L283.332 314.949L239.598 326.777L314.066 599.793L285.691 608.074L210.051 333.855L168.691 345.684L238.426 619.887L213.598 626.98L132.051 355.137L87.1289 365.777L175.785 691.98L260.879 669.527L343.613 976.824C243.145 943.73 160.41 884.637 96.582 798.355C32.7695 713.262 0.847656 613.98 0.847656 501.699C0.847656 431.965 13.8477 365.777 39.8633 305.496C65.8633 245.215 101.316 192.027 147.41 145.934C192.332 101.027 245.504 65.5586 306.973 39.5586C367.254 13.5586 432.254 0.558594 501.988 0.558594Z" fill="#F29400"/>
</svg>
